HIERARCHY
ROOT Hips
{
	OFFSET 0.000000 97.167313 0.000000
	CHANNELS 6 Xposition Yposition Zposition Xrotation Yrotation Zrotation
	JOINT Spine
	{
		OFFSET 0.000000 13.784798 0.064400
		CHANNELS 3 Xrotation Yrotation Zrotation
		JOINT Spine1
		{
			OFFSET 0.000000 12.037903 0.404700
			CHANNELS 3 Xrotation Yrotation Zrotation
			JOINT Spine2
			{
				OFFSET 0.000000 17.795601 0.420200
				CHANNELS 3 Xrotation Yrotation Zrotation
				JOINT Neck
				{
					OFFSET 0.000000 39.131302 11.954600
					CHANNELS 3 Xrotation Yrotation Zrotation
					JOINT Head
					{
						OFFSET 0.000000 14.456192 15.627699
						CHANNELS 3 Xrotation Yrotation Zrotation
						JOINT HeadTop_End
						{
							OFFSET 0.000000 15.703506 7.603401
							CHANNELS 3 Xrotation Yrotation Zrotation
							End Site
							{
								OFFSET 0.000000 17.447403 0.000000
							}
						}
					}
				}
				JOINT LeftShoulder
				{
					OFFSET 17.399500 24.608795 1.168800
					CHANNELS 3 Xrotation Yrotation Zrotation
					JOINT LeftArm
					{
						OFFSET 18.980635 5.765305 1.818600
						CHANNELS 3 Xrotation Yrotation Zrotation
						JOINT LeftForeArm
						{
							OFFSET 49.290169 0.000000 0.000000
							CHANNELS 3 Xrotation Yrotation Zrotation
							JOINT LeftHand
							{
								OFFSET 31.562012 0.000000 0.000000
								CHANNELS 3 Xrotation Yrotation Zrotation
								JOINT LeftHandThumb1
								{
									OFFSET 6.133995 -4.388519 7.076070
									CHANNELS 3 Xrotation Yrotation Zrotation
									JOINT LeftHandThumb2
									{
										OFFSET 6.037666 -3.485840 3.485847
										CHANNELS 3 Xrotation Yrotation Zrotation
										JOINT LeftHandThumb3
										{
											OFFSET 6.496506 -3.750763 3.750761
											CHANNELS 3 Xrotation Yrotation Zrotation
											JOINT LeftHandThumb4
											{
												OFFSET 5.616882 -3.242905 3.242910
												CHANNELS 3 Xrotation Yrotation Zrotation
												End Site
												{
													OFFSET -1.254608 7.132141 0.375429
												}
											}
										}
									}
								}
								JOINT LeftHandPinky1
								{
									OFFSET 18.920792 -0.453171 -11.426712
									CHANNELS 3 Xrotation Yrotation Zrotation
									JOINT LeftHandPinky2
									{
										OFFSET 4.919586 0.000000 0.000000
										CHANNELS 3 Xrotation Yrotation Zrotation
										JOINT LeftHandPinky3
										{
											OFFSET 5.233047 0.000000 0.000000
											CHANNELS 3 Xrotation Yrotation Zrotation
											JOINT LeftHandPinky4
											{
												OFFSET 5.571716 0.000000 0.000000
												CHANNELS 3 Xrotation Yrotation Zrotation
												End Site
												{
													OFFSET -3.459808 4.342407 -0.466164
												}
											}
										}
									}
								}
								JOINT LeftHandRing1
								{
									OFFSET 22.726120 -0.094986 -6.500475
									CHANNELS 3 Xrotation Yrotation Zrotation
									JOINT LeftHandRing2
									{
										OFFSET 6.408615 0.000000 0.000000
										CHANNELS 3 Xrotation Yrotation Zrotation
										JOINT LeftHandRing3
										{
											OFFSET 6.150223 0.000000 0.000000
											CHANNELS 3 Xrotation Yrotation Zrotation
											JOINT LeftHandRing4
											{
												OFFSET 6.145386 0.000000 0.000000
												CHANNELS 3 Xrotation Yrotation Zrotation
												End Site
												{
													OFFSET -3.671402 4.923981 -0.202372
												}
											}
										}
									}
								}
								JOINT LeftHandMiddle1
								{
									OFFSET 23.373947 0.000000 0.000001
									CHANNELS 3 Xrotation Yrotation Zrotation
									JOINT LeftHandMiddle2
									{
										OFFSET 6.996567 0.000000 0.000000
										CHANNELS 3 Xrotation Yrotation Zrotation
										JOINT LeftHandMiddle3
										{
											OFFSET 7.015945 0.000000 0.000000
											CHANNELS 3 Xrotation Yrotation Zrotation
											JOINT LeftHandMiddle4
											{
												OFFSET 7.721573 0.000000 0.000000
												CHANNELS 3 Xrotation Yrotation Zrotation
												End Site
												{
													OFFSET -4.651108 6.158463 0.251582
												}
											}
										}
									}
								}
								JOINT LeftHandIndex1
								{
									OFFSET 21.310577 -0.490082 6.209344
									CHANNELS 3 Xrotation Yrotation Zrotation
									JOINT LeftHandIndex2
									{
										OFFSET 7.536453 0.000000 0.000000
										CHANNELS 3 Xrotation Yrotation Zrotation
										JOINT LeftHandIndex3
										{
											OFFSET 7.512344 0.000000 0.000000
											CHANNELS 3 Xrotation Yrotation Zrotation
											JOINT LeftHandIndex4
											{
												OFFSET 10.212402 0.000000 0.000001
												CHANNELS 3 Xrotation Yrotation Zrotation
												End Site
												{
													OFFSET -5.180801 8.690506 1.388433
												}
											}
										}
									}
								}
							}
						}
					}
				}
				JOINT RightShoulder
				{
					OFFSET -17.399500 24.608795 1.168800
					CHANNELS 3 Xrotation Yrotation Zrotation
					JOINT RightArm
					{
						OFFSET -18.980635 5.765305 1.818600
						CHANNELS 3 Xrotation Yrotation Zrotation
						JOINT RightForeArm
						{
							OFFSET -49.290169 0.000000 0.000000
							CHANNELS 3 Xrotation Yrotation Zrotation
							JOINT RightHand
							{
								OFFSET -31.562012 0.000000 0.000000
								CHANNELS 3 Xrotation Yrotation Zrotation
								JOINT RightHandThumb1
								{
									OFFSET -6.133995 -4.388519 7.076070
									CHANNELS 3 Xrotation Yrotation Zrotation
									JOINT RightHandThumb2
									{
										OFFSET -6.037666 -3.485840 3.485847
										CHANNELS 3 Xrotation Yrotation Zrotation
										JOINT RightHandThumb3
										{
											OFFSET -6.496506 -3.750763 3.750761
											CHANNELS 3 Xrotation Yrotation Zrotation
											JOINT RightHandThumb4
											{
												OFFSET -5.616882 -3.242905 3.242910
												CHANNELS 3 Xrotation Yrotation Zrotation
												End Site
												{
													OFFSET 1.254608 7.132141 0.375429
												}
											}
										}
									}
								}
								JOINT RightHandIndex1
								{
									OFFSET -21.310577 -0.490082 6.209344
									CHANNELS 3 Xrotation Yrotation Zrotation
									JOINT RightHandIndex2
									{
										OFFSET -7.536453 0.000000 0.000000
										CHANNELS 3 Xrotation Yrotation Zrotation
										JOINT RightHandIndex3
										{
											OFFSET -7.512344 0.000000 0.000000
											CHANNELS 3 Xrotation Yrotation Zrotation
											JOINT RightHandIndex4
											{
												OFFSET -10.212402 0.000000 0.000001
												CHANNELS 3 Xrotation Yrotation Zrotation
												End Site
												{
													OFFSET 5.180801 8.690506 1.388433
												}
											}
										}
									}
								}
								JOINT RightHandMiddle1
								{
									OFFSET -23.373947 0.000000 0.000001
									CHANNELS 3 Xrotation Yrotation Zrotation
									JOINT RightHandMiddle2
									{
										OFFSET -6.996567 0.000000 0.000000
										CHANNELS 3 Xrotation Yrotation Zrotation
										JOINT RightHandMiddle3
										{
											OFFSET -7.015945 0.000000 0.000000
											CHANNELS 3 Xrotation Yrotation Zrotation
											JOINT RightHandMiddle4
											{
												OFFSET -7.721573 0.000000 0.000000
												CHANNELS 3 Xrotation Yrotation Zrotation
												End Site
												{
													OFFSET 4.651108 6.158463 0.251582
												}
											}
										}
									}
								}
								JOINT RightHandRing1
								{
									OFFSET -22.726120 -0.094986 -6.500475
									CHANNELS 3 Xrotation Yrotation Zrotation
									JOINT RightHandRing2
									{
										OFFSET -6.408615 0.000000 0.000000
										CHANNELS 3 Xrotation Yrotation Zrotation
										JOINT RightHandRing3
										{
											OFFSET -6.150223 0.000000 0.000000
											CHANNELS 3 Xrotation Yrotation Zrotation
											JOINT RightHandRing4
											{
												OFFSET -6.145386 0.000000 0.000000
												CHANNELS 3 Xrotation Yrotation Zrotation
												End Site
												{
													OFFSET 3.671402 4.923981 -0.202372
												}
											}
										}
									}
								}
								JOINT RightHandPinky1
								{
									OFFSET -18.920792 -0.453171 -11.426712
									CHANNELS 3 Xrotation Yrotation Zrotation
									JOINT RightHandPinky2
									{
										OFFSET -4.919586 0.000000 0.000000
										CHANNELS 3 Xrotation Yrotation Zrotation
										JOINT RightHandPinky3
										{
											OFFSET -5.233047 0.000000 0.000000
											CHANNELS 3 Xrotation Yrotation Zrotation
											JOINT RightHandPinky4
											{
												OFFSET -5.571716 0.000000 0.000000
												CHANNELS 3 Xrotation Yrotation Zrotation
												End Site
												{
													OFFSET 3.459808 4.342407 -0.466164
												}
											}
										}
									}
								}
							}
						}
					}
				}
			}
		}
	}
	JOINT LeftUpLeg
	{
		OFFSET 19.899099 -7.885101 -3.429500
		CHANNELS 3 Xrotation Yrotation Zrotation
		JOINT LeftLeg
		{
			OFFSET 1.745560 -36.997807 10.304700
			CHANNELS 3 Xrotation Yrotation Zrotation
			JOINT LeftFoot
			{
				OFFSET -1.745558 -29.803308 -13.615400
				CHANNELS 3 Xrotation Yrotation Zrotation
				JOINT LeftToeBase
				{
					OFFSET 1.181900 -18.539904 15.226099
					CHANNELS 3 Xrotation Yrotation Zrotation
					JOINT LeftToe_End
					{
						OFFSET -0.863701 1.402801 16.534700
						CHANNELS 3 Xrotation Yrotation Zrotation
						End Site
						{
							OFFSET 0.000000 16.616566 0.000000
						}
					}
				}
			}
		}
	}
	JOINT RightUpLeg
	{
		OFFSET -19.899099 -7.885101 -3.429500
		CHANNELS 3 Xrotation Yrotation Zrotation
		JOINT RightLeg
		{
			OFFSET -1.745560 -36.997807 10.304700
			CHANNELS 3 Xrotation Yrotation Zrotation
			JOINT RightFoot
			{
				OFFSET 1.745558 -29.803308 -13.615400
				CHANNELS 3 Xrotation Yrotation Zrotation
				JOINT RightToeBase
				{
					OFFSET -1.181900 -18.539904 15.226099
					CHANNELS 3 Xrotation Yrotation Zrotation
					JOINT RightToe_End
					{
						OFFSET 0.863701 1.402801 16.534700
						CHANNELS 3 Xrotation Yrotation Zrotation
						End Site
						{
							OFFSET 0.000000 16.616566 0.000000
						}
					}
				}
			}
		}
	}
}
MOTION
Frames: 6
Frame Time: 0.033333
1.156311 48.280869 20.867916 -7.807837 -1.484814 1.226914 13.127319 0.264303 -1.043862 1.355067 0.074943 -0.208773 1.196560 0.057586 -0.374373 3.103718 -0.570025 -0.292079 -9.557805 2.786653 0.016406 -0.000000 -0.000000 -0.000000 2.246687 -13.328343 -5.332499 -34.458567 -27.167906 -55.960095 0.000025 -41.813800 0.000002 44.634917 -16.084834 56.612795 6.057915 -3.267759 20.583835 16.980153 19.090444 -16.012371 1.598660 -7.861586 13.230406 -0.000001 -0.000001 -0.000001 0.757290 10.846272 -4.418939 0.191466 1.486977 -14.673610 0.007262 0.291831 -2.848991 -0.000000 -0.000001 0.000001 0.212961 5.866091 -2.340231 0.455081 2.265702 -22.711182 0.296430 1.841618 -18.286155 -0.000000 -0.000001 0.000003 0.063351 3.039213 0.054188 0.462962 2.284446 -22.909684 0.428776 2.201858 -22.036190 -0.000000 0.000000 0.000002 -0.159113 -2.235446 -2.990136 1.045997 3.342519 -34.745261 0.002055 0.155288 -1.515620 -0.000001 0.000003 0.000002 1.584081 23.061137 3.934294 -13.448357 36.418456 29.018376 0.000012 37.524967 -0.000007 16.547872 3.829811 -40.674497 -7.973131 1.245056 -3.976716 14.289482 -20.193072 6.136948 3.645031 -1.654935 -14.089026 0.000001 0.000000 -0.000002 -1.227389 1.706508 15.650318 0.575258 -2.244050 28.752651 0.152746 -1.184213 14.699636 -0.000001 -0.000001 0.000001 0.004651 -2.549332 11.665761 0.514032 -2.128733 27.147917 0.162236 -1.219740 15.151294 -0.000000 -0.000000 -0.000006 2.033816 -9.359887 17.107247 0.365520 -1.810268 22.828862 0.104842 -0.983619 12.166918 0.000001 -0.000001 -0.000002 3.865836 -12.823478 21.268154 0.297207 -1.638603 20.558888 0.098286 -0.952738 11.779197 -0.000000 -0.000001 0.000007 -86.940406 -1.660172 13.166002 84.135732 -7.948270 -5.639501 10.662865 0.197538 2.109821 0.264504 0.000001 -0.000001 -0.000000 -0.000000 -0.000000 -86.208879 3.031842 -12.911177 92.586377 -2.944299 3.534519 1.445412 -3.024285 -2.961056 0.175375 -0.000010 -0.000001 -0.000000 -0.000002 -0.000000 
1.181300 48.279671 20.832294 -8.085470 -1.457532 1.075358 13.227758 0.276913 -0.922768 1.493692 0.051854 -0.202582 1.358638 0.034226 -0.367050 3.196927 -0.617970 -0.283619 -9.784739 2.602507 0.085814 0.000000 -0.000000 0.000000 2.104614 -13.403848 -6.128754 -34.998197 -27.064780 -55.895348 0.000010 -41.203260 0.000011 43.509545 -15.612527 51.704392 3.565678 -0.990870 13.116162 14.233376 19.466878 -13.751728 2.159506 -4.301207 13.754560 0.000000 0.000003 0.000001 1.018484 9.998888 -7.151194 0.309740 1.881427 -18.696145 0.018252 0.462657 -4.519464 0.000001 0.000001 -0.000004 0.493471 6.793050 -5.734817 0.454866 2.265205 -22.705888 0.378851 2.074337 -20.698101 -0.000003 0.000000 0.000003 0.112777 3.256062 -4.039113 0.479765 2.323784 -23.327719 0.374539 2.062906 -20.578914 0.000001 0.000000 0.000004 -0.340702 -0.289979 -7.770567 0.892038 3.109203 -32.009723 0.003648 0.206993 -2.020265 -0.000002 -0.000002 -0.000001 1.315196 23.761770 4.065682 -14.236565 37.491882 29.468612 0.000009 32.938201 -0.000001 16.627561 4.639575 -38.225666 -10.118165 -2.609462 1.497010 11.269555 -18.127092 2.815636 3.608965 -2.553794 -14.589245 0.000000 -0.000001 -0.000000 -1.444388 1.145886 19.647317 0.591734 -2.273784 29.170597 0.152624 -1.183692 14.693390 -0.000001 -0.000003 0.000003 -0.029720 -2.597412 14.879955 0.566089 -2.227259 28.517530 0.098621 -0.954356 11.799568 -0.000001 0.000001 -0.000004 1.911059 -8.052944 20.556428 0.362283 -1.802574 22.726145 0.076264 -0.840274 10.371949 0.000001 -0.000000 -0.000003 3.977649 -12.028043 23.898245 0.336199 -1.738992 21.882070 0.086766 -0.895712 11.064930 -0.000001 -0.000003 0.000000 -86.807552 -1.690373 13.192393 84.204252 -8.003824 -5.614767 10.721677 0.203499 2.216249 0.273042 -0.000003 -0.000003 -0.000000 -0.000000 -0.000000 -85.835718 2.972346 -12.894747 92.565784 -2.969813 3.555645 1.399473 -3.037122 -2.871679 0.183285 -0.000017 0.000000 -0.000000 0.000000 -0.000000 
1.206412 48.277794 20.794378 -8.381795 -1.429892 0.920808 13.354743 0.286182 -0.797938 1.640084 0.025530 -0.200092 1.531570 0.007981 -0.358817 3.270389 -0.653194 -0.281223 -9.952530 2.445400 0.160419 0.000000 0.000000 0.000000 1.958905 -13.370240 -6.866205 -35.493218 -26.917198 -55.841209 0.000008 -40.944098 0.000005 42.976209 -15.241806 48.221306 2.126398 0.959284 8.414061 12.413265 19.634753 -12.296513 2.519748 -1.995202 14.076428 0.000001 0.000000 0.000002 1.122460 9.433913 -8.788353 0.400222 2.129980 -21.280530 0.027874 0.571471 -5.585654 -0.000002 -0.000000 -0.000004 0.713026 7.367933 -7.815951 0.454017 2.263183 -22.684411 0.436917 2.221876 -22.247483 -0.000001 -0.000003 0.000005 0.143049 3.382597 -6.563822 0.490558 2.348620 -23.592551 0.341317 1.972205 -19.635221 -0.000001 -0.000002 -0.000001 -0.302009 0.953956 -10.746434 0.798392 2.954325 -30.239061 0.004906 0.239967 -2.342458 -0.000001 0.000003 0.000002 1.087706 24.308102 4.342686 -15.337243 37.852379 30.043738 0.000005 29.965491 -0.000002 17.089335 5.219288 -35.937023 -11.105141 -4.915323 4.311646 9.643729 -16.952543 1.112015 3.589284 -3.036940 -14.854483 -0.000000 -0.000001 -0.000001 -1.540869 0.836693 21.810228 0.599870 -2.288292 29.375261 0.152625 -1.183698 14.693393 -0.000000 -0.000002 0.000003 -0.052574 -2.624595 16.616790 0.595137 -2.279864 29.256425 0.070807 -0.809922 9.993569 -0.000001 0.000001 -0.000006 1.775477 -7.365010 22.412388 0.360521 -1.798354 22.669977 0.062755 -0.762721 9.405662 -0.000001 -0.000000 0.000000 4.006714 -11.606254 25.307615 0.358082 -1.792523 22.592176 0.080891 -0.865157 10.683011 0.000001 -0.000004 0.000005 -86.659965 -1.722118 13.220787 84.275935 -8.061204 -5.589762 10.781015 0.209180 2.324203 0.281590 -0.000002 0.000000 0.000000 -0.000000 0.000000 -85.446247 2.905974 -12.871688 92.543872 -2.984757 3.574564 1.354754 -3.065523 -2.784144 0.191427 -0.000014 -0.000001 -0.000000 -0.000002 0.000000 
1.224959 48.271194 20.775158 -8.674094 -1.400522 0.767651 13.485302 0.294210 -0.672960 1.787526 -0.001183 -0.197663 1.705985 -0.018660 -0.350456 3.325236 -0.679537 -0.281170 -10.084516 2.309381 0.238037 -0.000000 -0.000000 -0.000000 1.801389 -13.082334 -7.314351 -36.619817 -26.081149 -56.773294 0.000034 -40.704710 0.000020 42.898615 -14.844260 43.680952 1.147565 2.679538 4.908096 11.006052 19.722567 -11.193490 2.793788 -0.236130 14.311334 0.000001 0.000000 0.000005 1.167452 8.994009 -9.949560 0.476115 2.315291 -23.237441 0.036455 0.653277 -6.388226 0.000000 0.000000 -0.000006 0.896009 7.790444 -9.323119 0.452895 2.260498 -22.655877 0.483546 2.332496 -23.420539 -0.000003 -0.000001 0.000003 0.164414 3.470174 -8.404235 0.498716 2.367191 -23.790551 0.316987 1.902663 -18.915528 0.000001 0.000001 0.000006 -0.195112 1.886123 -12.937954 0.730215 2.834279 -28.889187 0.005974 0.264836 -2.585065 -0.000000 0.000002 -0.000003 0.871770 24.757310 4.784519 -16.502439 37.317664 30.596102 0.000006 28.909148 -0.000008 17.978774 5.344743 -34.257825 -11.660724 -6.436255 6.030500 8.619794 -16.189864 0.076379 3.576889 -3.339167 -15.016579 0.000001 -0.000004 -0.000002 -1.593812 0.639556 23.173572 0.604344 -2.296220 29.486876 0.152624 -1.183706 14.693390 -0.000002 -0.000001 -0.000002 -0.068593 -2.641816 17.709313 0.613714 -2.312717 29.720134 0.055715 -0.718988 8.861720 0.000000 0.000000 -0.000001 1.666098 -6.940332 23.576169 0.359396 -1.795652 22.634123 0.054956 -0.714080 8.800847 -0.000001 -0.000000 -0.000003 4.014224 -11.345420 26.186684 0.372054 -1.825714 23.034845 0.077360 -0.846203 10.446053 -0.000001 -0.000001 0.000004 -86.513826 -1.763530 13.257080 84.376366 -8.129296 -5.565063 10.810112 0.214733 2.424978 0.290204 0.000001 0.000001 0.000000 -0.000000 -0.000000 -85.060082 2.826453 -12.830235 92.549637 -2.962808 3.588665 1.274000 -3.145901 -2.701752 0.200026 -0.000009 0.000000 -0.000000 0.000000 0.000000 
1.234058 48.258575 20.784534 -8.965040 -1.370145 0.614659 13.617299 0.301966 -0.547533 1.935404 -0.027927 -0.197663 1.881004 -0.045458 -0.342047 3.362562 -0.700413 -0.281660 -10.204031 2.188373 0.315801 -0.000000 -0.000000 -0.000000 1.661354 -12.606583 -7.420450 -38.192953 -24.630454 -58.508691 0.000018 -40.438432 0.000013 43.147565 -14.284244 38.177155 0.420826 4.258850 2.039801 9.821325 19.768972 -10.279489 3.022280 1.230721 14.500381 -0.000000 -0.000000 0.000001 1.183246 8.621586 -10.856942 0.543775 2.466787 -24.859133 0.044387 0.720595 -7.049961 -0.000000 0.000000 -0.000006 1.057002 8.131833 -10.523398 0.451619 2.257427 -22.623569 0.523877 2.423404 -24.392557 0.000000 -0.000001 -0.000000 0.180771 3.537143 -9.878986 0.505423 2.382342 -23.952840 0.297369 1.844487 -18.315528 -0.000002 -0.000000 0.000008 -0.057814 2.649549 -14.711522 0.675590 2.733079 -27.764132 0.006936 0.285272 -2.785147 -0.000003 0.000001 0.000001 0.663132 25.157945 5.262808 -17.634758 36.317793 31.129089 0.000010 28.873375 -0.000006 19.052283 5.163371 -32.802950 -12.010826 -7.505959 7.183885 7.915300 -15.654389 -0.614631 3.568442 -3.544885 -15.123369 0.000001 0.000002 0.000003 -1.626434 0.502936 24.109810 0.606825 -2.300584 29.548775 0.152603 -1.183716 14.693381 -0.000000 -0.000001 -0.000001 -0.080420 -2.653346 18.457618 0.626562 -2.335044 30.036829 0.046446 -0.656823 8.090049 -0.000001 0.000001 -0.000004 1.580633 -6.653463 24.370772 0.358612 -1.793770 22.609111 0.049936 -0.680940 8.389129 -0.000002 0.000001 -0.000001 4.014804 -11.169723 26.783045 0.381653 -1.848143 23.334590 0.075009 -0.833418 10.286588 -0.000000 -0.000001 0.000000 -86.364750 -1.820228 13.306275 84.521426 -8.213779 -5.538991 10.792266 0.219242 2.514307 0.298856 -0.000002 0.000002 0.000000 0.000000 -0.000000 -84.662947 2.743875 -12.785242 92.603486 -2.935802 3.606964 1.132157 -3.230925 -2.620475 0.208611 -0.000003 -0.000000 -0.000000 -0.000002 0.000000 
1.240706 48.243500 20.803398 -9.255467 -1.338740 0.462031 13.749716 0.309411 -0.422114 2.083425 -0.054611 -0.197662 2.056232 -0.072310 -0.333624 3.383457 -0.718951 -0.281573 -10.334439 2.076027 0.390438 -0.000000 -0.000000 0.000000 1.698650 -12.574673 -7.364403 -38.393207 -24.689968 -58.518049 0.000007 -40.417190 -0.000013 42.892413 -14.101940 37.606000 -0.202880 5.917437 -0.707910 8.657811 19.790731 -9.394731 3.244975 2.659687 14.680276 -0.000001 0.000001 0.000004 1.185359 8.258841 -11.730712 0.613733 2.612332 -26.438057 0.052849 0.786012 -7.693626 0.000000 0.000001 0.000001 1.224798 8.459252 -11.686099 0.450329 2.254360 -22.590747 0.564608 2.511215 -25.338837 -0.000002 -0.000001 0.000001 0.196183 3.601458 -11.306778 0.512003 2.397070 -24.110544 0.278845 1.787582 -17.730923 -0.000000 -0.000003 0.000004 0.116238 3.383329 -16.435069 0.624274 2.633419 -26.668084 0.007944 0.305201 -2.979759 -0.000003 0.000001 0.000001 0.465240 25.530153 5.704174 -18.793112 35.179699 31.703829 0.000003 29.136535 0.000001 20.194702 4.899392 -31.429812 -12.318937 -8.533906 8.253988 7.252957 -15.144215 -1.253285 3.560466 -3.738135 -15.223168 -0.000001 -0.000001 -0.000001 -1.654524 0.373867 24.991170 0.609045 -2.304521 29.604280 0.152615 -1.183717 14.693385 -0.000000 -0.000001 -0.000003 -0.092049 -2.664437 19.161691 0.638739 -2.355966 30.334666 0.038495 -0.598287 7.364631 0.000001 0.000000 -0.000004 1.492520 -6.386639 25.117773 0.357869 -1.792000 22.585489 0.045452 -0.649721 8.002225 -0.000000 0.000000 -0.000005 4.011965 -11.005655 27.342811 0.390786 -1.869144 23.615987 0.072861 -0.821425 10.137044 0.000002 -0.000001 0.000000 -86.215572 -1.883750 13.361122 84.679613 -8.308780 -5.509169 10.762602 0.224420 2.593995 0.307558 -0.000001 0.000000 -0.000000 0.000000 -0.000000 -84.263149 2.659156 -12.736366 92.672403 -2.898913 3.625911 0.970636 -3.328009 -2.540261 0.217349 0.000002 -0.000002 -0.000000 0.000000 0.000000 
